<?xml version="1.0" encoding="UTF-8"?>
<svg width="1014px" height="350px" viewBox="0 0 1014 350" version="1.1" xmlns="http://www.w3.org/2000/svg" xmlns:xlink="http://www.w3.org/1999/xlink">
    <!-- Generator: Sketch 61.2 (89653) - https://sketch.com -->
    <title>Artboard</title>
    <desc>Created with Sketch.</desc>
    <g id="Artboard" stroke="none" stroke-width="1" fill="none" fill-rule="evenodd">
        <g id="Group-8">
            <circle id="Oval" fill="#1C212E" cx="175" cy="175" r="175"></circle>
            <path d="M180.480832,201 L200.600714,235.022356 C201.133095,235.906546 201.133095,237.003206 200.600714,237.887397 L179.70699,273.302481 C178.737028,274.96995 176.925195,276 174.962119,276 C172.999044,276 171.187211,274.96995 170.217248,273.302481 L129,203.626287 L180.480832,201 Z" id="Path" fill="#FFFBF6" fill-rule="nonzero"></path>
            <path d="M259.512191,139.781668 L281.322462,102.918951 C282.25114,101.271128 282.223494,99.2688229 281.249658,97.6459641 C280.275823,96.0231054 278.499013,95.0183567 276.570503,95 L74.4294966,95 C72.500987,95.0183567 70.7241772,96.0231054 69.7503415,97.6459641 C68.7765058,99.2688229 68.7488602,101.271128 69.677538,102.918951 L91.4878094,139.781668 C92.3281944,141.184922 93.8829123,142.033693 95.5493125,141.998974 L255.613148,141.998974 C257.221613,141.97709 258.700919,141.135839 259.512191,139.781668 Z" id="Path" fill="#FFFBF6" fill-rule="nonzero"></path>
            <path d="M244.730038,157 L105.258776,157 C104.45242,156.990687 103.703531,157.405673 103.299819,158.085686 C102.896108,158.765699 102.90037,159.604967 103.310966,160.281056 L128.673067,202.893191 C129.075373,203.57204 129.81623,203.99302 130.620876,204 L219.489675,204 C220.294321,203.99302 221.035178,203.57204 221.437485,202.893191 L246.718426,160.281056 C247.105639,159.595673 247.092716,158.762096 246.684432,158.088417 C246.276148,157.414737 245.533145,157.001013 244.730038,157 Z" id="Path" fill="#FFFBF6" fill-rule="nonzero"></path>
            <polygon id="Path" fill="#1A1A1A" fill-rule="nonzero" opacity="0.3" points="193 222 140.089686 222 130 204 182.506726 204"></polygon>
        </g>
        <path d="M437.85,235 L437.85,190.6 L478.95,190.6 L478.95,175.75 L437.85,175.75 L437.85,145.3 L487.65,145.3 L487.65,130 L420.6,130 L420.6,235 L437.85,235 Z M513.55,146.95 C516.35,146.95 518.7,146.025 520.6,144.175 C522.5,142.325 523.45,140 523.45,137.2 C523.45,134.4 522.5,132.075 520.6,130.225 C518.7,128.375 516.35,127.45 513.55,127.45 C510.75,127.45 508.4,128.375 506.5,130.225 C504.6,132.075 503.65,134.4 503.65,137.2 C503.65,140 504.6,142.325 506.5,144.175 C508.4,146.025 510.75,146.95 513.55,146.95 Z M521.65,235 L521.65,158.2 L505.45,158.2 L505.45,235 L521.65,235 Z M560,235 L560,130 L543.8,130 L543.8,235 L560,235 Z M618.6,235 L618.6,220.75 L606.3,220.75 C603.4,220.75 601.35,220.125 600.15,218.875 C598.95,217.625 598.35,215.5 598.35,212.5 L598.35,212.5 L598.35,172.45 L616.95,172.45 L616.95,158.2 L598.35,158.2 L598.35,136.75 L582.15,136.75 L582.15,214.15 C582.15,221.25 583.8,226.5 587.1,229.9 C590.4,233.3 595.7,235 603,235 L603,235 L618.6,235 Z M668.8,235.9 C678,235.9 685.675,233.4 691.825,228.4 C697.975,223.4 701.75,217 703.15,209.2 L703.15,209.2 L686.95,209.2 C685.85,213.5 683.6,216.825 680.2,219.175 C676.8,221.525 672.6,222.7 667.6,222.7 C661.3,222.7 656.25,220.75 652.45,216.85 C648.65,212.95 646.55,207.65 646.15,200.95 L646.15,200.95 L646.15,200.05 L704.05,200.05 C704.35,197.95 704.5,195.9 704.5,193.9 C704.4,186.5 702.725,180.05 699.475,174.55 C696.225,169.05 691.775,164.8 686.125,161.8 C680.475,158.8 673.95,157.3 666.55,157.3 C659.25,157.3 652.775,158.925 647.125,162.175 C641.475,165.425 637.075,170.025 633.925,175.975 C630.775,181.925 629.2,188.85 629.2,196.75 C629.2,204.55 630.825,211.4 634.075,217.3 C637.325,223.2 641.925,227.775 647.875,231.025 C653.825,234.275 660.8,235.9 668.8,235.9 Z M688,188.2 L646.75,188.2 C647.35,182.8 649.575,178.475 653.425,175.225 C657.275,171.975 661.85,170.35 667.15,170.35 C672.85,170.35 677.575,171.925 681.325,175.075 C685.075,178.225 687.3,182.6 688,188.2 L688,188.2 Z M740,235 L740,196.45 C740,189.75 741.5,184.225 744.5,179.875 C747.5,175.525 752.35,173.35 759.05,173.35 L759.05,173.35 L766.25,173.35 L766.25,158.2 L762.65,158.2 C756.75,158.2 752.05,159.225 748.55,161.275 C745.05,163.325 742.2,166.15 740,169.75 L740,169.75 L738.2,158.2 L723.8,158.2 L723.8,235 L740,235 Z M816,235.9 C825.2,235.9 832.875,233.4 839.025,228.4 C845.175,223.4 848.95,217 850.35,209.2 L850.35,209.2 L834.15,209.2 C833.05,213.5 830.8,216.825 827.4,219.175 C824,221.525 819.8,222.7 814.8,222.7 C808.5,222.7 803.45,220.75 799.65,216.85 C795.85,212.95 793.75,207.65 793.35,200.95 L793.35,200.95 L793.35,200.05 L851.25,200.05 C851.55,197.95 851.7,195.9 851.7,193.9 C851.6,186.5 849.925,180.05 846.675,174.55 C843.425,169.05 838.975,164.8 833.325,161.8 C827.675,158.8 821.15,157.3 813.75,157.3 C806.45,157.3 799.975,158.925 794.325,162.175 C788.675,165.425 784.275,170.025 781.125,175.975 C777.975,181.925 776.4,188.85 776.4,196.75 C776.4,204.55 778.025,211.4 781.275,217.3 C784.525,223.2 789.125,227.775 795.075,231.025 C801.025,234.275 808,235.9 816,235.9 Z M835.2,188.2 L793.95,188.2 C794.55,182.8 796.775,178.475 800.625,175.225 C804.475,171.975 809.05,170.35 814.35,170.35 C820.05,170.35 824.775,171.925 828.525,175.075 C832.275,178.225 834.5,182.6 835.2,188.2 L835.2,188.2 Z M904.45,235.9 C915.05,235.9 923.4,231.75 929.5,223.45 L929.5,223.45 L931.45,235 L945.55,235 L945.55,130 L929.35,130 L929.35,168.85 C926.75,165.25 923.35,162.425 919.15,160.375 C914.95,158.325 910.05,157.3 904.45,157.3 C897.55,157.3 891.35,158.925 885.85,162.175 C880.35,165.425 876.025,170.025 872.875,175.975 C869.725,181.925 868.15,188.8 868.15,196.6 C868.15,204.6 869.7,211.575 872.8,217.525 C875.9,223.475 880.2,228.025 885.7,231.175 C891.2,234.325 897.45,235.9 904.45,235.9 Z M907.15,222.25 C900.45,222.25 895.05,219.875 890.95,215.125 C886.85,210.375 884.8,204.2 884.8,196.6 C884.8,189.1 886.85,182.975 890.95,178.225 C895.05,173.475 900.45,171.1 907.15,171.1 C913.85,171.1 919.25,173.475 923.35,178.225 C927.45,182.975 929.5,189.2 929.5,196.9 C929.5,204.4 927.45,210.5 923.35,215.2 C919.25,219.9 913.85,222.25 907.15,222.25 Z" id="Filtered" fill="#1C212E" fill-rule="nonzero"></path>
    </g>
</svg>