<?xml version="1.0" encoding="utf-8"?>
<!-- Generator: Adobe Illustrator 21.0.2, SVG Export Plug-In . SVG Version: 6.00 Build 0)  -->
<svg version="1.1" id="Layer_1" xmlns="http://www.w3.org/2000/svg" xmlns:xlink="http://www.w3.org/1999/xlink" x="0px" y="0px"
	 viewBox="0 0 115 14" style="enable-background:new 0 0 115 14;" xml:space="preserve">
<style type="text/css">
	.st0{fill:#FEFEFE;}
</style>
<title>E750E77B-3C10-422E-B199-536C451FE52D</title>
<desc>Created with sketchtool.</desc>
<g id="Homepage">
	<g id="Logo" transform="translate(-56.000000, -67.000000)">
		<g transform="translate(56.000000, 67.000000)">
			<path id="Fill-1_1_" class="st0" d="M48.5,8.2c-1.2-0.3-1.8-0.4-1.8-0.8c0-0.3,0.3-0.7,1.1-0.7c0.6,0,1.2,0.3,1.5,0.8
				c0.1,0.1,0.2,0.1,0.3,0.1l1.6-0.9c0.1,0,0.1-0.1,0.1-0.2c0-0.1,0-0.1,0-0.2c-0.7-1.1-1.8-1.7-3.4-1.7l-0.1,0
				c-1.1,0-2.1,0.4-2.7,1c-0.5,0.5-0.8,1.1-0.8,1.8c0,1.9,1.6,2.5,3.1,2.8l0.1,0c0.9,0.2,1.7,0.3,1.7,0.7c0,0.4-0.4,0.8-1.1,0.8
				c-0.8,0-1.4-0.3-1.7-1c0-0.1-0.1-0.1-0.1-0.1c-0.1,0-0.1,0-0.2,0l-1.8,1c-0.1,0-0.1,0.1-0.1,0.1c0,0.1,0,0.1,0,0.2
				c0.7,1.3,1.9,1.9,3.7,1.9l0.1,0c1.4,0,2.3-0.6,2.7-1c0.5-0.5,0.8-1.3,0.8-1.9C51.6,9.1,50.1,8.6,48.5,8.2"/>
			<path id="Fill-3_1_" class="st0" d="M56.4,8.2c-1.2-0.3-1.8-0.4-1.8-0.8c0-0.3,0.3-0.7,1.1-0.7c0.6,0,1.2,0.3,1.5,0.8
				c0.1,0.1,0.2,0.1,0.3,0.1l1.6-0.9c0.1,0,0.1-0.1,0.1-0.2c0-0.1,0-0.1,0-0.2c-0.7-1.1-1.8-1.7-3.4-1.7l-0.1,0
				c-1.1,0-2.1,0.4-2.7,1c-0.5,0.5-0.8,1.1-0.8,1.8c0,1.9,1.6,2.5,3.1,2.8l0.1,0c0.9,0.2,1.7,0.3,1.7,0.7c0,0.4-0.4,0.8-1.1,0.8
				c-0.8,0-1.4-0.3-1.7-1c0-0.1-0.1-0.1-0.1-0.1c-0.1,0-0.1,0-0.2,0l-1.8,1c-0.1,0-0.1,0.1-0.1,0.1c0,0.1,0,0.1,0,0.2
				c0.7,1.3,1.9,1.9,3.7,1.9l0.1,0c1.4,0,2.3-0.6,2.7-1c0.5-0.5,0.8-1.3,0.8-1.9C59.6,9.1,58.1,8.6,56.4,8.2"/>
			<path id="Fill-5_1_" class="st0" d="M88.4,9.8V7.2c0-0.1,0.1-0.2,0.2-0.2h1.4c0.1,0,0.2-0.1,0.2-0.2V5.1c0-0.1-0.1-0.2-0.2-0.2
				h-1.4c-0.1,0-0.2-0.1-0.2-0.2V2c0-0.2-0.2-0.3-0.3-0.2l-2,1.1C86,3,86,3.1,86,3.2v1.5c0,0.1-0.1,0.2-0.2,0.2h-0.9
				c-0.1,0-0.2,0.1-0.2,0.2v1.7c0,0.1,0.1,0.2,0.2,0.2h0.9C85.9,7,86,7.1,86,7.2l0,3.2c0,1.9,1.5,3.4,3.3,3.4c0.3,0,0.6,0,0.9,0
				c0.1,0,0.1-0.1,0.1-0.2v-2.1c0-0.1-0.1-0.1-0.2-0.1c-0.1,0-0.2,0.1-0.4,0.1c-0.6,0-1.1-0.4-1.3-1C88.5,10.4,88.4,10.2,88.4,9.8"
				/>
			<path id="Fill-7_1_" class="st0" d="M93.8,9.4V5.1c0-0.1-0.1-0.2-0.2-0.2h-2c-0.1,0-0.2,0.1-0.2,0.2v4.6c0,1.3,0.4,2.4,1,3.1
				C93,13.6,94,14,95.1,14c0.9,0,1.7-0.2,2.5-0.8l0,0v0.5c0,0.1,0.1,0.2,0.2,0.2h2c0.1,0,0.2-0.1,0.2-0.2V5.1c0-0.1-0.1-0.2-0.2-0.2
				h-2c-0.1,0-0.2,0.1-0.2,0.2v4.3c0,1.4-0.7,2.3-1.9,2.3C94.5,11.7,93.8,10.8,93.8,9.4"/>
			<path id="Fill-9_1_" class="st0" d="M77.3,9.4V5.1c0-0.1-0.1-0.2-0.2-0.2h-2c-0.1,0-0.2,0.1-0.2,0.2v4.6c0,1.3,0.4,2.4,1,3.1
				c0.7,0.8,1.6,1.2,2.8,1.2c0.9,0,1.7-0.2,2.5-0.8l0,0v0.5c0,0.1,0.1,0.2,0.2,0.2h2.1c0.1,0,0.2-0.1,0.2-0.2V5.1
				c0-0.1-0.1-0.2-0.2-0.2h-2c-0.1,0-0.2,0.1-0.2,0.2v4.3c0,1.4-0.7,2.3-1.9,2.3C78,11.7,77.3,10.8,77.3,9.4"/>
			<path id="Fill-11_1_" class="st0" d="M114.1,0H112c-0.1,0-0.2,0.1-0.2,0.2v13.4c0,0.1,0.1,0.2,0.2,0.2h2.1c0.1,0,0.2-0.1,0.2-0.2
				V0.2C114.2,0.1,114.2,0,114.1,0"/>
			<path id="Fill-13_1_" class="st0" d="M33.8,9.3c0,2.8,1.9,4.7,4.6,4.7c0.8,0,1.6-0.4,2.2-0.9v0.5c0,0.1,0.1,0.2,0.2,0.2h2
				c0.1,0,0.2-0.1,0.2-0.2V5.1c0-0.1-0.1-0.2-0.2-0.2h-2c-0.1,0-0.2,0.1-0.2,0.2v0.5l0,0c-0.7-0.5-1.5-0.8-2.4-0.8
				C35.6,4.7,33.8,6.6,33.8,9.3 M38.5,6.9c1.3,0,2.2,1,2.2,2.4c0,1.4-0.9,2.5-2.2,2.5c-1.3,0-2.2-1-2.2-2.5
				C36.3,7.9,37.2,6.9,38.5,6.9"/>
			<path id="Fill-15_1_" class="st0" d="M101.1,9.3c0,2.8,1.9,4.7,4.6,4.7c0.8,0,1.6-0.4,2.2-0.9v0.5c0,0.1,0.1,0.2,0.2,0.2h2.1
				c0.1,0,0.2-0.1,0.2-0.2V5.1c0-0.1-0.1-0.2-0.2-0.2h-2.1c-0.1,0-0.2,0.1-0.2,0.2v0.5l0,0c-0.7-0.5-1.5-0.8-2.4-0.8
				C102.9,4.7,101.1,6.6,101.1,9.3 M105.8,6.9c1.3,0,2.2,1,2.2,2.4c0,1.4-0.9,2.5-2.2,2.5c-1.3,0-2.2-1-2.2-2.5
				C103.5,7.9,104.5,6.9,105.8,6.9"/>
			<path id="Fill-17_1_" class="st0" d="M30.8,0.1L26.3,7l-4.5-6.8C21.8,0,21.7,0,21.7,0h-1.5c-0.1,0-0.3,0.1-0.3,0.3v13.3
				c0,0.1,0.1,0.3,0.3,0.3h2c0.1,0,0.3-0.1,0.3-0.3V5.4l3.8,5.8c0.1,0.2,0.3,0.2,0.4,0l3.8-5.8v8.1c0,0.1,0.1,0.3,0.3,0.3h2
				c0.1,0,0.3-0.1,0.3-0.3V0.3c0-0.1-0.1-0.3-0.3-0.3H31C30.9,0,30.9,0,30.8,0.1"/>
			<path id="Fill-19_1_" class="st0" d="M71.5,0.1L67,7l-4.5-6.8C62.5,0,62.4,0,62.3,0h-1.5c-0.1,0-0.3,0.1-0.3,0.3v13.3
				c0,0.1,0.1,0.3,0.3,0.3h2c0.1,0,0.3-0.1,0.3-0.3V5.4l3.8,5.8c0.1,0.2,0.3,0.2,0.4,0L71,5.4v8.1c0,0.1,0.1,0.3,0.3,0.3h2
				c0.1,0,0.3-0.1,0.3-0.3V0.3c0-0.1-0.1-0.3-0.3-0.3h-1.5C71.6,0,71.6,0,71.5,0.1"/>
			<path id="Fill-21_1_" class="st0" d="M16.7,11.9c0-1.2-0.9-2.1-2-2.1c-1.1,0-2,0.9-2,2.1s0.9,2.1,2,2.1
				C15.8,14,16.7,13.1,16.7,11.9"/>
			<path id="Fill-23_1_" class="st0" d="M10.3,11.9c0-1.2-0.9-2.1-2-2.1c-1.1,0-2,0.9-2,2.1s0.9,2.1,2,2.1
				C9.4,14,10.3,13.1,10.3,11.9"/>
			<g id="Group-27" transform="translate(0.000000, 12.315474)">
				<path id="Fill-25_1_" class="st0" d="M4-0.4c0-1.2-0.9-2.1-2-2.1c-1.1,0-2,0.9-2,2.1s0.9,2.1,2,2.1C3.1,1.7,4,0.8,4-0.4"/>
			</g>
			<path id="Fill-28" class="st0" d="M13.5,6.8c0-1.2-0.9-2.1-2-2.1c-1.1,0-2,0.9-2,2.1s0.9,2.1,2,2.1C12.6,8.9,13.5,8,13.5,6.8"/>
			<path id="Fill-30" class="st0" d="M7.2,6.8c0-1.2-0.9-2.1-2-2.1s-2,0.9-2,2.1s0.9,2.1,2,2.1S7.2,8,7.2,6.8"/>
		</g>
	</g>
</g>
</svg>
