<?xml version="1.0" encoding="utf-8"?>
<!-- Generator: Adobe Illustrator 19.2.1, SVG Export Plug-In . SVG Version: 6.00 Build 0)  -->
<svg version="1.1" id="layer" xmlns="http://www.w3.org/2000/svg" xmlns:xlink="http://www.w3.org/1999/xlink" x="0px" y="0px"
	 viewBox="0 0 652 652" style="enable-background:new 0 0 652 652;" xml:space="preserve">
<style type="text/css">
	.st0{fill:url(#SVGID_1_);}
	.st1{fill:url(#SVGID_2_);}
	.st2{fill:url(#SVGID_3_);}
	.st3{fill:url(#SVGID_4_);}
	.st4{fill:none;}
	.st5{fill:url(#SVGID_5_);}
</style>
<g>
	
		<linearGradient id="SVGID_1_" gradientUnits="userSpaceOnUse" x1="76.4721" y1="320.3042" x2="119.7962" y2="363.6283" gradientTransform="matrix(1 0 0 -1 0 651.89)">
		<stop  offset="0" style="stop-color:#C4CA80"/>
		<stop  offset="0.5048" style="stop-color:#DBE08C"/>
	</linearGradient>
	<path class="st0" d="M102,291.8c-1.5,1.1-2.6,1.8-2.6,1.8C82.6,306.1,61,311.9,61,311.9s-1.5,0.4-3.3,1.1
		c9.5,9.5,22.7,15.4,37.3,15.4c17.6,0,33.3-8.4,42.8-22C128.3,310.1,115.2,303.2,102,291.8z"/>
	
		<linearGradient id="SVGID_2_" gradientUnits="userSpaceOnUse" x1="145.6253" y1="400.2685" x2="116.4469" y2="349.7302" gradientTransform="matrix(1 0 0 -1 0 651.89)">
		<stop  offset="0" style="stop-color:#9FBC6E"/>
		<stop  offset="0.4025" style="stop-color:#AFCE79"/>
	</linearGradient>
	<path class="st1" d="M148.1,272c0-0.4,0-0.7,0-1.1c0-0.7,0-1.5-0.4-2.2c0-0.4,0-0.7,0-1.1c0-0.7-0.4-1.8-0.4-2.6v-0.4
		c-0.4-1.1-0.4-2.2-0.7-2.9c0-0.4,0-0.4-0.4-0.7c-0.4-0.7-0.4-1.5-0.7-2.2c0-0.4-0.4-0.7-0.4-0.7c-0.4-0.7-0.4-1.5-0.7-2.2
		c0-0.4-0.4-0.4-0.4-0.7c-0.4-0.7-0.7-1.8-1.1-2.6c0-0.4-0.4-0.7-0.4-0.7c-0.4-0.7-0.7-1.1-0.7-1.8l-0.4-0.4
		c-4.4,8.8-16.8,16.8-32.2,22.3c0.7,2.9,1.1,6.6,0,9.9c-1.1,4-4.8,7.7-7.3,9.9c12.8,11.4,26.4,18.3,35.9,15c1.8-2.6,3.7-5.1,4.8-8.1
		c0-0.4,0.4-0.4,0.4-0.7c0.4-0.4,0.4-1.1,0.7-1.5c0.4-0.4,0.4-0.7,0.7-1.5c0-0.4,0.4-0.7,0.4-0.7c0.4-0.7,0.4-1.1,0.7-1.5
		c0-0.4,0-0.4,0.4-0.7c0.4-0.7,0.4-1.1,0.7-1.8V290c0.7-2.2,1.1-4.4,1.5-6.6V283c0-1.1,0.4-1.8,0.4-2.9c0-0.4,0-0.4,0-0.7
		c0-1.1,0-2.2,0-3.3C148.1,274.2,148.1,273.1,148.1,272z"/>
	
		<linearGradient id="SVGID_3_" gradientUnits="userSpaceOnUse" x1="130.8178" y1="389.1817" x2="82.4571" y2="429.761" gradientTransform="matrix(1 0 0 -1 0 651.89)">
		<stop  offset="0" style="stop-color:#9EC382"/>
		<stop  offset="0.1641" style="stop-color:#83B06B"/>
		<stop  offset="0.3227" style="stop-color:#70A35A"/>
		<stop  offset="0.4324" style="stop-color:#699E54"/>
	</linearGradient>
	<path class="st2" d="M139.7,246.4c-0.4-0.4-0.7-1.1-1.1-1.5c-0.7-0.7-1.1-1.8-1.8-2.6c-0.4-0.4-0.4-0.7-0.7-1.1
		c-0.4-0.7-1.1-1.1-1.5-1.8l0,0c-9.9-10.6-23.8-17.2-39.5-17.2c-5.1,0-9.9,0.7-14.6,2.2c2.9,3.3,5.1,5.5,5.1,5.5s14.6,16.8,22,36.3
		c0,0,1.1,2.2,1.5,5.1c15-5.9,27.8-13.5,32.2-22.3C140.8,248.2,140.4,247.1,139.7,246.4z"/>
	
		<radialGradient id="SVGID_4_" cx="76.0292" cy="383.2572" r="39.4647" gradientTransform="matrix(1 0 0 -1 0 651.89)" gradientUnits="userSpaceOnUse">
		<stop  offset="0" style="stop-color:#496F93"/>
		<stop  offset="0.8595" style="stop-color:#6799CB"/>
	</radialGradient>
	<path class="st3" d="M109.3,271.7c-0.7-2.9-1.5-5.1-1.5-5.1c-7.3-19.4-22-36.3-22-36.3s-2.2-2.6-5.1-5.5l0,0l0,0
		c-0.7,0.4-1.1,0.4-1.8,0.7c0,0,0,0-0.4,0c-0.7,0.4-1.1,0.4-1.8,0.7c0,0,0,0-0.4,0c-1.8,0.7-3.7,1.5-5.5,2.6l0,0
		c-0.4,0.4-0.7,0.4-1.5,0.7c-0.4,0-0.4,0.4-0.7,0.4c-0.4,0.4-0.7,0.4-1.1,0.7c-0.4,0-0.7,0.4-0.7,0.4c-0.4,0.4-0.7,0.4-1.1,0.7
		c-0.4,0.4-0.7,0.4-1.1,0.7c-0.4,0.4-0.7,0.4-0.7,0.7c-0.4,0.4-0.7,0.7-1.1,1.1l-0.4,0.4c-0.7,0.4-1.1,1.1-1.8,1.5l-0.4,0.4
		c-0.4,0.4-1.1,0.7-1.5,1.1l0,0c-10.6,9.2-16.5,22.7-16.5,37.7c0,5.1,0.7,9.9,2.2,14.6l0,0c1.1,3.3,2.2,6.6,4,9.5v0.4
		c0,0.7,0.4,1.1,0.7,1.5c0,0,0,0.4,0.4,0.4c0.4,0.4,0.7,1.1,1.1,1.5l0,0c1.1,1.5,2.2,3.3,3.3,4.8c0,0.4,0.4,0.4,0.4,0.7
		c0.4,0.4,0.7,0.7,1.1,1.1c0.4,0.4,0.4,0.4,0.7,0.7c0.4,0.4,0.7,0.7,0.7,1.1c0.4,0.4,0.4,0.4,0.7,0.7c0.4,0.4,0.4,0.4,0.7,0.7l0,0
		c1.8-0.4,3.3-1.1,3.3-1.1s21.6-6.2,38.4-18.3c0,0,1.1-0.7,2.6-1.8c2.6-2.2,5.9-5.9,7.3-9.9C110.4,278.3,110,274.6,109.3,271.7z"/>
</g>
<path class="st4" d="M429.7,392.5c-2.6-1.5-5.5-2.2-8.8-2.2h-19.8c-3.7,0-8.4-0.7-13.5-2.2c-2.6,2.6-4,4.8-4,7.3
	c0,3.7,2.2,7,6.6,9.9c4.4,2.9,11.7,4.4,21.6,4.4c14.3,0,21.6-3.7,21.6-11C433.4,396.2,432.3,394,429.7,392.5z"/>
<path class="st4" d="M488.7,321.1c-5.1,0-9.5,1.8-12.8,5.1c-3.3,3.7-5.5,8.4-6.2,15H507c0-5.9-1.8-11-5.5-14.6
	C498.2,323.3,493.8,321.1,488.7,321.1z"/>
<path class="st4" d="M408.1,347.5c10.3,0,15.4-4.8,15.4-14.3c0-3.7-1.1-7-3.7-9.2c-2.6-2.6-6.2-3.7-11.4-3.7c-5.1,0-8.8,1.5-11.4,4
	c-2.6,2.6-4,5.9-4,9.9c0,4,1.5,7.3,4,9.9C399.7,346,403.3,347.5,408.1,347.5z"/>
<path class="st4" d="M219.9,323.3c2.9-2.9,4.4-7,4.4-11.4c0-5.1-1.8-8.8-5.1-11.4s-7.3-3.7-11.7-3.7h-24.2v31.1h24.5
	C212.9,327.7,217,326.2,219.9,323.3z"/>
<path class="st4" d="M326.4,323.7c-6.6,0-11.4,2.6-14.3,7.7c-3.3,5.1-4.8,11.7-4.8,20.1c0,9.2,1.8,16.1,5.1,20.9
	c3.3,4.8,7.7,7.3,13.5,7.3c12.4,0,19-9.5,19-28.2c0-8.4-1.5-15-4.4-20.1C337.4,325.9,333,323.7,326.4,323.7z"/>
<path class="st4" d="M209.6,343.8h-26.4V376h26.4c5.5,0,9.9-1.5,13.2-4.4c3.3-2.9,4.8-7,4.8-11.7s-1.5-8.4-4.8-11.7
	C219.2,345.3,215.1,343.8,209.6,343.8z"/>
<path d="M223.9,334.6c6.2-1.1,11.4-4,15-8.8c3.7-4.4,5.5-9.9,5.5-16.1c0-6.6-1.8-12.4-5.5-17.2s-7.7-8.1-12.8-9.5
	c-4.8-1.5-11-2.2-18.3-2.2h-43.6v112h49.1c11.7,0,20.5-2.9,26-8.8c5.5-5.9,8.4-13.2,8.4-22c0-7-2.2-12.8-6.2-17.9
	C237.8,339.4,232,336.1,223.9,334.6z M183.3,296.6h24.2c4.4,0,8.4,1.1,11.7,3.7c3.3,2.6,5.1,6.2,5.1,11.4c0,4.8-1.5,8.4-4.4,11.4
	c-2.9,2.9-7,4.4-12.1,4.4h-24.5V296.6z M222.4,371.6c-3.3,2.9-7.7,4.4-13.2,4.4h-26v-32.2h26.4c5.5,0,9.5,1.5,12.8,4.4
	s4.8,7,4.8,11.7C227.6,364.7,225.7,368.7,222.4,371.6z"/>
<rect x="258.7" y="309.7" width="18.7" height="83.1"/>
<rect x="258.7" y="280.8" width="18.7" height="19.4"/>
<path d="M326.8,308.3c-11.7,0-21.2,4-28.2,12.1c-7,8.1-10.6,18.3-10.6,30.8c0,11.4,3.3,21.6,9.5,30.4c6.6,8.8,15.7,13.2,28.2,13.2
	c11.4,0,20.9-4,28.2-12.1c7.3-8.1,11-18.7,11-31.5c0-12.8-3.7-23.1-10.6-31.1C346.9,311.9,337.8,308.3,326.8,308.3z M326.1,379
	c-5.9,0-10.3-2.2-13.5-7.3c-3.3-4.8-5.1-11.7-5.1-20.9c0-8.4,1.5-15,4.8-20.1s8.1-7.7,14.3-7.7s11,2.6,13.9,7.3s4.4,11.7,4.4,20.1
	C345.1,369.8,338.9,379,326.1,379z"/>
<path d="M489.8,308.3c-12.1,0-21.6,4-28.6,12.4c-7,8.1-10.6,18.7-10.6,31.1c0,13.2,3.7,23.8,10.6,31.5s16.1,11.7,27.8,11.7
	c9.5,0,17.6-2.6,23.8-7.3c6.2-4.8,10.6-11,12.8-18.7l-16.8-2.2c-3.3,9.2-9.5,13.5-18.7,13.5c-4.8,0-8.8-1.1-11.7-3.7
	c-3.3-2.6-5.1-5.5-6.2-8.8c-1.1-3.3-1.5-8.1-1.5-13.5h56.8v-2.2c0-12.8-3.3-23.1-9.5-31.1C510.6,312.3,501.5,308.3,489.8,308.3z
	 M469.6,341.6c0.7-6.6,2.6-11.4,6.2-15c3.3-3.7,7.7-5.1,12.8-5.1c5.1,0,9.5,1.8,13.2,5.5c3.7,3.7,5.5,8.8,5.5,14.6H469.6z"/>
<path d="M579.5,308.3c-10.6,0-19,7-25.3,20.9v-19H537v82.8h18.7V350c0-8.4,1.8-15,5.5-19.4c3.7-4.4,8.1-6.2,12.8-6.2
	c3.7,0,6.6,1.5,9.2,4c2.6,2.9,3.7,7,3.7,12.4v51.6h18.7v-53.1c0-11.7-2.6-19.8-7.7-24.2C592.6,310.5,586.4,308.3,579.5,308.3z"/>
<path d="M423.8,372.7h-24.9c-3.7,0-6.6-0.7-8.4-2.6c-1.8-1.8-2.9-3.7-2.9-5.5c0-3.7,1.8-6.6,5.9-8.1c5.9,1.5,11,2.2,15.4,2.2
	c10.3,0,18.3-2.6,24.5-7.3c6.2-4.8,9.2-11,9.2-18.3c0-4.8-1.8-9.5-5.5-13.9l12.1-1.1l-2.6-16.1l-22.7,7.7l0,0
	c-5.5-1.1-10.6-1.8-16.1-1.8c-11.7,0-20.1,2.6-25.6,7.3c-5.5,4.8-8.4,11-8.4,17.6c0,8.1,4,14.6,11.7,19.4
	c-8.8,4.4-13.2,9.9-13.2,17.2c0,4.8,2.6,9.5,7.7,13.9c-8.1,4-12.1,9.5-12.1,16.8c0,15,13.5,22.3,40.3,22.3c14.3,0,24.9-2.6,32.2-7.7
	c7.3-5.1,11-11.7,11-19.4c0-6.6-2.6-12.1-7.3-16.1C438.9,374.9,432.3,372.7,423.8,372.7z M396.7,323.7c2.6-2.6,6.6-4,11.4-4
	c4.8,0,8.8,1.1,11.4,3.7c2.6,2.6,3.7,5.5,3.7,9.2c0,9.5-5.1,14.3-15.4,14.3c-4.8,0-8.4-1.1-11.4-3.7c-2.6-2.6-4-5.9-4-9.9
	C392.7,329.5,394.2,326.2,396.7,323.7z M411.8,410.1c-9.9,0-16.8-1.5-21.6-4.4c-4.4-2.9-6.6-6.2-6.6-9.9c0-2.2,1.5-4.8,4-7.3
	c5.1,1.5,9.9,2.2,13.5,2.2h19.8c3.3,0,6.2,0.7,8.8,2.2c2.6,1.5,3.7,3.3,3.7,6.2C433.4,406.1,426,410.1,411.8,410.1z"/>
<radialGradient id="SVGID_5_" cx="49.9882" cy="390.1649" r="35.364" gradientTransform="matrix(1 0 0 -1 0 651.89)" gradientUnits="userSpaceOnUse">
	<stop  offset="0" style="stop-color:#E6F2F8"/>
	<stop  offset="8.979338e-002" style="stop-color:#D1E3F1"/>
	<stop  offset="0.279" style="stop-color:#ABC9E3"/>
	<stop  offset="0.4672" style="stop-color:#8DB4D9"/>
	<stop  offset="0.652" style="stop-color:#78A5D1"/>
	<stop  offset="0.8316" style="stop-color:#6B9CCD"/>
	<stop  offset="1" style="stop-color:#6799CB"/>
</radialGradient>
<path class="st5" d="M76.7,257c-3.3-9.2-8.4-17.9-12.8-24.2c-4.8-7.3-8.8-12.1-8.8-12.1s-24.2,11-31.5,35.2s7.3,46.5,7.3,46.5
	s7.3-2.2,16.5-6.2c7-2.9,14.6-7,21.6-12.1c0,0,7.7-5.1,9.5-11.7l0,0l0,0C80,265.8,76.7,257,76.7,257z"/>
<g>
	<path d="M617.5,385.2c2.2,0,4,1.8,4,4s-1.8,4-4,4s-4-1.8-4-4C613.5,387,615.3,385.2,617.5,385.2z M617.5,392.1
		c1.8,0,3.3-1.5,3.3-3.3c0-1.8-1.5-3.3-3.3-3.3c-1.8,0-3.3,1.5-3.3,3.3C614.2,391,615.7,392.1,617.5,392.1z M616.8,391h-0.7v-4h1.8
		c0.4,0,1.5,0,1.5,1.1c0,0.7-0.7,1.1-0.7,1.1l0.7,1.8h-1.1l-0.7-1.8h-1.1v1.8H616.8z M616.8,388.8h1.1c0.4,0,0.7,0,0.7-0.7
		c0-0.4,0-0.7-0.7-0.7h-1.1V388.8z"/>
</g>
</svg>
