<?xml version="1.0" encoding="utf-8"?>
<!-- Generator: Adobe Illustrator 16.0.0, SVG Export Plug-In . SVG Version: 6.00 Build 0)  -->
<!DOCTYPE svg PUBLIC "-//W3C//DTD SVG 1.1//EN" "http://www.w3.org/Graphics/SVG/1.1/DTD/svg11.dtd">
<svg version="1.1" id="Layer_1" xmlns="http://www.w3.org/2000/svg" xmlns:xlink="http://www.w3.org/1999/xlink" x="0px" y="0px"
	 width="1600px" height="1200px" viewBox="0 0 1600 1200" enable-background="new 0 0 1600 1200" xml:space="preserve">
<g>
	<g>
		<g>
			<polygon fill="#ED6926" points="640.558,647.362 552.632,647.362 552.632,658.233 651.442,658.233 651.442,564.805 
				640.558,564.805 			"/>
		</g>
		<g>
			<polygon fill="#ED6926" points="90.927,95.137 90.927,658.233 498.784,658.233 498.784,647.362 101.784,647.362 101.784,105.995 
				640.558,105.995 640.558,510.976 651.442,510.976 651.442,95.137 			"/>
		</g>
	</g>
	<g>
		<path fill="#ED6926" d="M1080.138,1095.541H519.623V532.457h560.515V1095.541z M530.496,1084.692h538.785V543.324H530.496
			V1084.692z"/>
	</g>
	<g>
		<g>
			<polygon fill="#ED6926" points="959.398,565.517 948.558,565.517 948.558,657.857 1048.038,657.857 1048.038,647.008 
				959.398,647.008 			"/>
		</g>
		<g>
			<polygon fill="#ED6926" points="948.558,94.775 948.558,511.669 959.398,511.669 959.398,105.646 1498.217,105.646 
				1498.217,647.008 1101.868,647.008 1101.868,657.857 1509.073,657.857 1509.073,94.775 			"/>
		</g>
	</g>
	<g>
		<path fill="#ED6926" d="M463.662,225.257v60.855H323.695v79.58h107.199v58.515H323.695v81.218h139.967v60.855H244.115V225.257
			H463.662z"/>
	</g>
	<g>
		<path fill="#ED6926" d="M981.041,851.038c0,24.657-4.253,47.397-12.756,68.229c-8.506,20.831-20.48,38.854-35.928,54.067
			s-34.056,27.074-55.823,35.577c-21.768,8.506-45.916,12.756-72.441,12.756H671.615V680.644h132.477
			c26.525,0,50.674,4.294,72.441,12.873c21.767,8.584,40.375,20.444,55.823,35.577c15.448,15.137,27.421,33.119,35.928,53.95
			C976.787,803.876,981.041,826.543,981.041,851.038z M900.056,851.038c0-16.852-2.187-32.065-6.553-45.641
			c-4.371-13.576-10.65-25.081-18.842-34.524c-8.192-9.438-18.22-16.694-30.077-21.768c-11.86-5.068-25.359-7.606-40.492-7.606
			h-52.897v219.313h52.897c15.133,0,28.632-2.534,40.492-7.606c11.856-5.069,21.884-12.325,30.077-21.768
			c8.192-9.439,14.471-20.948,18.842-34.523C897.869,883.339,900.056,868.048,900.056,851.038z"/>
	</g>
	<g>
		<path fill="#ED6926" d="M1337.038,478.042c1.873,0,3.745,0.351,5.617,1.053c1.873,0.703,3.665,1.913,5.384,3.628l31.364,33.002
			c-13.733,17.946-30.937,31.481-51.61,40.609c-20.678,9.128-45.137,13.692-73.377,13.692c-25.904,0-49.116-4.407-69.633-13.225
			c-20.52-8.813-37.917-20.985-52.195-36.513c-14.278-15.524-25.242-33.938-32.885-55.238
			c-7.647-21.299-11.469-44.431-11.469-69.398c0-25.432,4.367-48.801,13.107-70.101c8.737-21.299,20.948-39.673,36.63-55.121
			c15.682-15.448,34.443-27.461,56.291-36.045c21.844-8.58,45.952-12.873,72.324-12.873c12.793,0,24.847,1.134,36.162,3.394
			c11.312,2.264,21.884,5.383,31.715,9.362c9.83,3.979,18.878,8.74,27.15,14.277c8.27,5.541,15.602,11.667,22.002,18.374
			l-26.683,35.811c-1.719,2.187-3.745,4.176-6.086,5.968c-2.341,1.796-5.617,2.692-9.83,2.692c-2.809,0-5.464-0.622-7.958-1.873
			c-2.498-1.247-5.149-2.769-7.958-4.564c-2.809-1.792-5.892-3.745-9.245-5.852c-3.357-2.106-7.337-4.056-11.938-5.852
			c-4.604-1.792-9.987-3.313-16.15-4.564c-6.165-1.247-13.381-1.873-21.65-1.873c-14.357,0-27.465,2.538-39.321,7.607
			c-11.86,5.072-22.042,12.328-30.545,21.768c-8.506,9.443-15.137,20.871-19.895,34.29c-4.762,13.422-7.139,28.478-7.139,45.173
			c0,17.478,2.377,33.002,7.139,46.578c4.758,13.575,11.234,25.007,19.427,34.29c8.192,9.285,17.748,16.347,28.672,21.182
			c10.921,4.838,22.623,7.256,35.109,7.256c7.175,0,13.729-0.351,19.66-1.053c5.929-0.702,11.429-1.909,16.501-3.628
			c5.069-1.715,9.907-3.939,14.512-6.671c4.601-2.728,9.246-6.122,13.927-10.182c1.872-1.558,3.898-2.845,6.086-3.862
			C1332.434,478.551,1334.698,478.042,1337.038,478.042z"/>
	</g>
</g>
</svg>
