<?xml version="1.0" encoding="utf-8"?>
<!-- Generator: Adobe Illustrator 22.0.1, SVG Export Plug-In . SVG Version: 6.00 Build 0)  -->
<svg version="1.1" id="Layer_1" xmlns="http://www.w3.org/2000/svg" xmlns:xlink="http://www.w3.org/1999/xlink" x="0px" y="0px"
	 viewBox="0 0 1164 260.5" style="enable-background:new 0 0 1164 260.5;" xml:space="preserve">
<style type="text/css">
	.st0{fill:#091B26;}
	.st1{fill:#23BEE2;}
</style>
<g>
	<path class="st0" d="M378.1,119.2v26.4h-63.9v16.1c0,2.6,2.3,4.9,4.9,4.9h59v10.3h-59c-8.4,0-15.2-6.8-15.2-15.2v-42.5
		c0-8.4,6.8-15.2,15.2-15.2h43.7C371.3,104,378.1,110.8,378.1,119.2z M367.7,135.3v-16.1c0-2.6-2.1-4.9-4.9-4.9h-43.7
		c-2.6,0-4.9,2.3-4.9,4.9v16.1H367.7z"/>
	<path class="st0" d="M398.7,80.2v81.5c0,2.6,2.3,4.9,4.9,4.9h12.3v10.3h-12.3c-8.4,0-15.2-6.8-15.2-15.2V80.2H398.7z"/>
	<path class="st0" d="M498.5,119.2v26.4h-63.9v16.1c0,2.6,2.3,4.9,4.9,4.9h59v10.3h-59c-8.4,0-15.2-6.8-15.2-15.2v-42.5
		c0-8.4,6.8-15.2,15.2-15.2h43.7C491.8,104,498.5,110.8,498.5,119.2z M488.1,135.3v-16.1c0-2.6-2.1-4.9-4.9-4.9h-43.7
		c-2.6,0-4.9,2.3-4.9,4.9v16.1H488.1z"/>
	<path class="st0" d="M582.9,166.6v10.3h-59c-8.4,0-15.2-6.8-15.2-15.2v-42.5c0-8.4,6.8-15.2,15.2-15.2h58.8v10.3h-58.8
		c-2.6,0-4.9,2.3-4.9,4.9v42.5c0,2.6,2.3,4.9,4.9,4.9H582.9z"/>
	<path class="st0" d="M603.4,114.3v47.3c0,2.6,2.3,4.9,4.9,4.9h26.6v10.3h-26.6c-8.5,0-15.2-6.8-15.2-15.2V80.2h10.3V104h31.5v10.3
		H603.4z"/>
	<path class="st0" d="M700.6,104v10.3h-40.9c-2.6,0-4.9,2.3-4.9,4.9v57.6h-10.3v-57.6c0-8.4,6.8-15.2,15.2-15.2H700.6z"/>
	<path class="st0" d="M766.9,104c8.5,0,15.3,6.8,15.3,15.2v42.5c0,8.4-6.8,15.2-15.3,15.2h-43.7c-8.4,0-15.2-6.8-15.2-15.2v-42.5
		c0-8.4,6.8-15.2,15.2-15.2H766.9z M723.2,114.3c-2.6,0-4.9,2.3-4.9,4.9v42.5c0,2.6,2.3,4.9,4.9,4.9h43.7c2.8,0,4.9-2.3,4.9-4.9
		v-42.5c0-2.6-2.1-4.9-4.9-4.9H723.2z"/>
	<path class="st0" d="M867.7,119.2v57.6h-10.3v-57.6c0-2.6-2.3-4.9-4.9-4.9h-43.7c-2.8,0-5,2.3-5,4.9v57.6h-10.3V104h59
		C860.9,104,867.7,110.8,867.7,119.2z"/>
	<path class="st0" d="M954.7,119.2v26.4h-63.9v16.1c0,2.6,2.3,4.9,4.9,4.9h59v10.3h-59c-8.4,0-15.2-6.8-15.2-15.2v-42.5
		c0-8.4,6.8-15.2,15.2-15.2h43.7C947.9,104,954.7,110.8,954.7,119.2z M944.3,135.3v-16.1c0-2.6-2.1-4.9-4.9-4.9h-43.7
		c-2.6,0-4.9,2.3-4.9,4.9v16.1H944.3z"/>
	<path class="st0" d="M1041.9,104v57.6c0,8.4-6.8,15.2-15.3,15.2h-43.7c-8.4,0-15.2-6.8-15.2-15.2V104H978v57.6
		c0,2.6,2.3,4.9,4.9,4.9h43.7c2.8,0,5-2.3,5-4.9V104H1041.9z"/>
	<path class="st0" d="M1164,119.2v57.6h-10.2v-57.6c0-2.6-2.3-4.9-5-4.9h-30.3c-2.8,0-4.9,2.3-4.9,4.9v57.6h-10.4v-57.6
		c0-2.6-2.3-4.9-4.9-4.9h-30.4c-2.6,0-4.9,2.3-4.9,4.9v57.6h-10.4V104h96.2C1157.3,104,1164,110.8,1164,119.2z"/>
</g>
<g>
	<path class="st0" d="M176.2,100.3l21.6,16.4l13.7,10.3l-15.2,7.8l-30.7,15.7l10.5,7.3l14.7,10.2l-15.9,8.2l-97.5,50.3
		c15.7,8.6,33.7,13.6,52.9,13.6c60.6,0,109.8-49.1,109.8-109.8c0-26.8-9.6-51.3-25.5-70.3L176.2,100.3z"/>
	<path class="st0" d="M84.3,165.9l-21.6-16.4L49,139.2l15.2-7.8l30.7-15.7l-10.5-7.3L69.7,98.3l15.9-8.2l102.7-53
		c-16.8-10.5-36.8-16.6-58.1-16.6c-60.6,0-109.8,49.1-109.8,109.8c0,28.2,10.6,53.9,28.1,73.3L84.3,165.9z"/>
	<path class="st0" d="M41.9,210.6c-19.3-21.2-31.1-49.4-31.1-80.4c0-65.9,53.6-119.5,119.5-119.5c25.2,0,48.7,7.9,68,21.3l10.7-5.5
		C187,9.9,159.8,0,130.2,0C58.4,0,0,58.4,0,130.2c0,34,13.1,64.9,34.5,88.2L41.9,210.6z"/>
	<path class="st0" d="M221.2,52.8c17.8,20.9,28.5,47.9,28.5,77.4c0,65.9-53.6,119.5-119.5,119.5c-23.1,0-44.8-6.6-63.1-18.1
		l-10.9,5.6c21,14.6,46.6,23.2,74,23.2c71.8,0,130.2-58.4,130.2-130.2c0-32.6-12-62.4-31.8-85.2L221.2,52.8z"/>
	<polygon class="st1" points="69.2,141 100.4,164.6 29.9,238.8 169.9,166.6 144.6,149.1 191.3,125.2 160.1,101.6 230.6,27.4 
		90.5,99.6 115.8,117.1 	"/>
</g>
</svg>
