<?xml version="1.0" encoding="utf-8"?>
<!-- Generator: Adobe Illustrator 21.1.0, SVG Export Plug-In . SVG Version: 6.00 Build 0)  -->
<!DOCTYPE svg PUBLIC "-//W3C//DTD SVG 1.1//EN" "http://www.w3.org/Graphics/SVG/1.1/DTD/svg11.dtd">
<svg version="1.1" id="Layer_1" xmlns="http://www.w3.org/2000/svg" xmlns:xlink="http://www.w3.org/1999/xlink" x="0px" y="0px"
	 width="1339px" height="189.6px" viewBox="0 0 1339 189.6" style="enable-background:new 0 0 1339 189.6;" xml:space="preserve">
<style type="text/css">
	.st0{fill:#0751A0;}
	.st1{fill:#FFFFFF;}
</style>
<g>
	<path class="st0" d="M606,52v4.4c0,3.6,1.3,6.8,6.6,6.8c3.9,0,5.5-3.1,5.5-6.3c0-5.3-4.9-7.3-9.2-9.6c-5.1-2.6-9.4-5-12.5-8.2
		c-3-3.2-4.8-7-4.8-12.5c0-11.8,8-17.8,20.8-17.8c14.4,0,21.7,8.5,21,20.3h-15.2c-0.2-3.7,0-8.7-5.5-9c-3.4-0.2-5.4,1.4-5.7,4.2
		c-0.5,3.8,1.7,5.7,5,7.7c6.2,3.5,11.6,5.7,15.4,8.8s6.1,7.3,6.1,14.9c0,12-7.5,18.7-21.2,18.7c-15.1,0-21.5-7.5-21.5-15.8V52H606z"
		/>
	<path class="st0" d="M637,72.9l15.4-62.5h19.9l15.3,62.5h-16.7l-2.3-12.2h-13l-2,12.2H637z M662.4,21.7h-0.2l-4.8,28h9.6
		L662.4,21.7z"/>
	<path class="st0" d="M693,72.9V10.4h23.3l8.6,36.9h0.2l8.8-36.9H757v62.5h-15.8l1.7-49h-0.2l-11.7,49h-12.3l-11.4-49h-0.2l1.5,49
		H693z"/>
	<path class="st0" d="M778.4,52v4.4c0,3.6,1.3,6.8,6.6,6.8c3.9,0,5.5-3.1,5.5-6.3c0-5.3-4.9-7.3-9.2-9.6c-5.1-2.6-9.4-5-12.5-8.2
		c-3-3.2-4.8-7-4.8-12.5c0-11.8,8-17.8,20.8-17.8c14.4,0,21.7,8.5,21,20.3h-15.2c-0.2-3.7,0-8.7-5.5-9c-3.4-0.2-5.4,1.4-5.7,4.2
		c-0.5,3.8,1.7,5.7,5,7.7c6.2,3.5,11.6,5.7,15.4,8.8s6.1,7.3,6.1,14.9c0,12-7.5,18.7-21.2,18.7c-15.1,0-21.5-7.5-21.5-15.8V52H778.4
		z"/>
	<path class="st0" d="M812.5,10.4h16.5v47.2c0,3,1,5.6,5.7,5.6c4.3,0,5.6-3.3,5.6-6V10.4H857v45.3c0,10.6-5.4,18.8-22.3,18.8
		c-14,0-22.2-5.9-22.2-18.8V10.4z"/>
	<path class="st0" d="M879.3,37.9l-0.2,0.2l1.5,34.8h-15.7V10.4h17l12.8,34.9h0.3l-1.6-34.9h15.7v62.5h-16.9L879.3,37.9z"/>
	<path class="st0" d="M950,73l-0.8-5.6H949c-3.4,5.3-7.1,7-14.3,7c-14,0-18.5-8.6-18.5-19.9V28.8c0-13.6,7.1-19.9,22.2-19.9
		c14.1,0,22.5,5.3,22.5,18.1v4.7h-16.5v-3.4c0-5.3-0.8-8-5.2-8.1c-5.2-0.1-6.4,2.4-6.4,6.5v30.9c0,3.5,1.8,5.6,6.1,5.6
		c5.6,0,5.8-4,5.8-8v-4.9h-5.9V39h22.5v34H950z"/>
	<path class="st0" d="M1005.2,72.9l-15.3-62.5h16.5l8.5,43.8h0.2l8.5-43.8h16.5l-15.4,62.5H1005.2z"/>
	<path class="st0" d="M1045.5,72.9V10.4h37.9v12.5H1062v11.5h20.7v12.5H1062v13.5h22.5v12.5H1045.5z"/>
	<path class="st0" d="M1106.6,37.9l-0.2,0.2l1.5,34.8h-15.7V10.4h17l12.8,34.9h0.3l-1.6-34.9h15.7v62.5h-16.9L1106.6,37.9z"/>
	<path class="st0" d="M1142.5,10.4h42.9v12.5H1172v50h-16.5v-50h-13V10.4z"/>
	<path class="st0" d="M1191.4,10.4h16.5v47.2c0,3,1,5.6,5.7,5.6c4.3,0,5.6-3.3,5.6-6V10.4h16.5v45.3c0,10.6-5.4,18.8-22.3,18.8
		c-14,0-22.2-5.9-22.2-18.8V10.4z"/>
	<path class="st0" d="M1260.2,72.9h-16.5V10.4h24.2c13.5,0,20.3,4.8,20.3,17.3c0,6.7-1.8,11.4-8.7,14.3v0.2c4.6,0.9,7.9,3.8,8.2,8.1
		c0.5,5,0.6,15.8,1.5,19.8c0.4,0.8,0.8,1.6,1.6,2.2v0.8h-18c-0.5-1.2-0.8-2.3-0.9-3.6c-0.3-5.5,0.1-10.7-0.4-14.5
		c-0.5-3.8-1.8-6.3-5.6-6.6h-5.5V72.9z M1260.2,37h5.6c4.8,0,5.9-3.9,5.9-7.8c0-7.4-3.5-7.8-11.6-7.6V37z"/>
	<path class="st0" d="M1296.3,72.9V10.4h37.9v12.5h-21.3v11.5h20.7v12.5h-20.7v13.5h22.5v12.5H1296.3z"/>
</g>
<g>
	<path class="st0" d="M588.6,168.8v-62.5h16.5v62.5H588.6z"/>
	<path class="st0" d="M628.4,133.8l-0.2,0.2l1.5,34.8H614v-62.5h17l12.8,34.9h0.3l-1.6-34.9h15.7v62.5h-16.9L628.4,133.8z"/>
	<path class="st0" d="M678.6,168.8l-15.3-62.5h16.5l8.5,43.8h0.2l8.5-43.8h16.5l-15.4,62.5H678.6z"/>
	<path class="st0" d="M718.8,168.8v-62.5h37.9v12.5h-21.3v11.5h20.7v12.5h-20.7v13.5h22.5v12.5H718.8z"/>
	<path class="st0" d="M778.3,147.9v4.4c0,3.6,1.3,6.8,6.6,6.8c3.9,0,5.5-3.1,5.5-6.3c0-5.3-4.9-7.3-9.2-9.6c-5.1-2.6-9.4-5-12.5-8.2
		c-3-3.2-4.8-7-4.8-12.5c0-11.8,8-17.8,20.8-17.8c14.4,0,21.7,8.5,21,20.3h-15.2c-0.2-3.7,0-8.7-5.5-9c-3.4-0.2-5.4,1.4-5.7,4.2
		c-0.5,3.8,1.7,5.7,5,7.7c6.2,3.5,11.6,5.7,15.4,8.8s6.1,7.3,6.1,14.9c0,12-7.5,18.7-21.2,18.7c-15.1,0-21.5-7.5-21.5-15.8v-6.7
		H778.3z"/>
	<path class="st0" d="M810.6,106.3h42.9v12.5h-13.3v50h-16.5v-50h-13V106.3z"/>
	<path class="st0" d="M860.1,168.8v-62.5h23.3l8.6,36.9h0.2l8.8-36.9h23.1v62.5h-15.8l1.7-49h-0.2l-11.7,49h-12.3l-11.4-49h-0.2
		l1.5,49H860.1z"/>
	<path class="st0" d="M933,168.8v-62.5h37.9v12.5h-21.3v11.5h20.7v12.5h-20.7v13.5H972v12.5H933z"/>
	<path class="st0" d="M994.1,133.8l-0.2,0.2l1.5,34.8h-15.7v-62.5h17l12.8,34.9h0.3l-1.6-34.9h15.7v62.5H1007L994.1,133.8z"/>
	<path class="st0" d="M1030,106.3h42.9v12.5h-13.3v50H1043v-50h-13V106.3z"/>
</g>
<g>
	<g>
		<g>
			<path class="st0" d="M547.1,46.8c7.5,42.7-108.9,98.7-259.9,125c-151,26.3-279.4,13-286.9-29.8C-7.1,99.2,109.3,43.3,260.3,17
				C411.2-9.3,539.7,4,547.1,46.8z"/>
		</g>
		<g>
			<g>
				<polygon class="st1" points="405,110.2 404.2,65.8 418.2,65.8 418.2,121.8 398.1,121.8 384.1,75.8 383.8,75.8 384.6,121.8 
					370.6,121.8 370.6,65.8 391.7,65.8 404.7,110.2 				"/>
				<polygon class="st1" points="150.3,71 142.5,122.4 127.2,122.4 137.7,65.8 162.9,65.8 173.4,122.4 158.1,122.4 150.6,71 				"/>
				<polygon class="st1" points="216.3,109 223.3,65.8 246.4,65.8 247.6,122.4 233.4,122.4 233.1,71.5 232.8,71.5 223.3,122.4 
					208.9,122.4 199.5,71.5 199.2,71.5 198.8,122.4 184.6,122.4 185.9,65.8 209,65.8 216,109 				"/>
				<path class="st1" d="M103.4,106.4c0.6,1.4,0.4,3.1,0.1,4.2c-0.5,1.9-1.8,3.8-5.5,3.8c-3.5,0-5.7-2-5.7-5.1v-5.5H77.1l0,4.4
					c0,12.6,9.9,16.4,20.6,16.4c10.2,0,18.7-3.5,20-12.9c0.7-4.9,0.2-8.1-0.1-9.3c-2.4-11.8-23.9-15.4-25.5-22
					c-0.3-1.1-0.2-2.3-0.1-3c0.4-1.8,1.6-3.8,5.2-3.8c3.3,0,5.3,2,5.3,5.1c0,1,0,3.5,0,3.5h14.1v-4c0-12.3-11.1-14.3-19.1-14.3
					c-10.1,0-18.3,3.3-19.8,12.5c-0.4,2.5-0.5,4.8,0.1,7.6C80.4,95.7,100.5,99.1,103.4,106.4z"/>
				<path class="st1" d="M287.4,106.3c0.6,1.4,0.4,3.1,0.1,4.1c-0.5,1.9-1.7,3.8-5.5,3.8c-3.5,0-5.6-2-5.6-5.1l0-5.4h-15l0,4.3
					c0,12.5,9.8,16.3,20.4,16.3c10.1,0,18.5-3.5,19.8-12.8c0.7-4.9,0.2-8,0-9.2c-2.4-11.7-23.6-15.2-25.2-21.8
					c-0.3-1.1-0.2-2.3-0.1-2.9c0.4-1.8,1.6-3.8,5.1-3.8c3.3,0,5.2,2,5.2,5.1c0,1,0,3.5,0,3.5h14v-3.9c0-12.2-11-14.1-18.9-14.1
					c-10,0-18.1,3.3-19.6,12.4c-0.4,2.5-0.5,4.7,0.1,7.6C264.7,95.7,284.6,99,287.4,106.3z"/>
				<path class="st1" d="M335,113.9c3.9,0,5.2-2.7,5.4-4.1c0.1-0.6,0.1-1.4,0.1-2.2V65.7h14.3v40.6c0,1-0.1,3.2-0.1,3.7
					c-1,10.6-9.4,14-19.8,14c-10.4,0-18.8-3.4-19.8-14c0-0.5-0.2-2.7-0.1-3.7V65.7h14.3v41.9c0,0.7,0,1.6,0.1,2.2
					C329.8,111.2,331,113.9,335,113.9z"/>
				<path class="st1" d="M453.1,113.3c4.1,0,5.5-2.6,5.8-4.1c0.1-0.6,0.1-1.4,0.1-2.2v-8.2h-5.8v-8.3h20.1v15.2c0,1.1,0,1.8-0.2,3.7
					c-0.9,10.3-9.9,14-19.9,14c-10,0-19-3.7-19.9-14c-0.2-1.9-0.2-2.7-0.2-3.7l0-23.8c0-1,0.1-2.8,0.2-3.7c1.3-10.6,9.8-14,19.9-14
					c10,0,18.8,3.4,19.9,14c0.2,1.8,0.1,3.7,0.1,3.7v1.9h-14.3v-3.2c0,0,0-1.3-0.2-2.2c-0.2-1.3-1.3-4.1-5.6-4.1
					c-4.1,0-5.3,2.7-5.6,4.1c-0.2,0.7-0.2,1.8-0.2,2.7V107c0,0.7,0,1.5,0.1,2.2C447.5,110.7,449,113.3,453.1,113.3z"/>
			</g>
		</g>
	</g>
</g>
</svg>
