<?xml version="1.0" encoding="UTF-8" standalone="no"?>
<!-- Created with Inkscape (http://www.inkscape.org/) -->

<svg
   xmlns:dc="http://purl.org/dc/elements/1.1/"
   xmlns:cc="http://creativecommons.org/ns#"
   xmlns:rdf="http://www.w3.org/1999/02/22-rdf-syntax-ns#"
   xmlns:svg="http://www.w3.org/2000/svg"
   xmlns="http://www.w3.org/2000/svg"
   xmlns:sodipodi="http://sodipodi.sourceforge.net/DTD/sodipodi-0.dtd"
   xmlns:inkscape="http://www.inkscape.org/namespaces/inkscape"
   width="600"
   height="100"
   viewBox="0 0 158.75001 26.458333"
   version="1.1"
   id="svg8"
   inkscape:version="0.92.2 (5c3e80d, 2017-08-06)"
   sodipodi:docname="logorocketfuel.svg">
  <defs
     id="defs2" />
  <sodipodi:namedview
     id="base"
     pagecolor="#ffffff"
     bordercolor="#666666"
     borderopacity="1.0"
     inkscape:pageopacity="0.0"
     inkscape:pageshadow="2"
     inkscape:zoom="1.979899"
     inkscape:cx="328.72069"
     inkscape:cy="120.84393"
     inkscape:document-units="mm"
     inkscape:current-layer="flowRoot4504"
     showgrid="false"
     inkscape:snap-text-baseline="false"
     inkscape:window-width="1920"
     inkscape:window-height="1017"
     inkscape:window-x="-8"
     inkscape:window-y="-8"
     inkscape:window-maximized="1"
     units="px" />
  <metadata
     id="metadata5">
    <rdf:RDF>
      <cc:Work
         rdf:about="">
        <dc:format>image/svg+xml</dc:format>
        <dc:type
           rdf:resource="http://purl.org/dc/dcmitype/StillImage" />
        <dc:title></dc:title>
      </cc:Work>
    </rdf:RDF>
  </metadata>
  <g
     inkscape:label="Layer 1"
     inkscape:groupmode="layer"
     id="layer1"
     transform="translate(0,-270.5417)">
    <g
       aria-label="ROCKETFUEL"
       transform="matrix(0.26458333,0,0,0.26458333,-12.173227,226.35077)"
       style="font-style:normal;font-weight:normal;font-size:40px;line-height:0;font-family:sans-serif;letter-spacing:0px;word-spacing:0px;fill:#000000;fill-opacity:1;stroke:none"
       id="flowRoot4504">
      <path
         d="m 108.08818,251.0918 -18.013336,-27.44 h -10.64 v 27.44 h -6.626667 v -65.8 h 20.160001 q 11.106662,0 16.520002,5.22666 5.50667,5.22667 5.50667,14.09334 0,8.21333 -4.66667,13.06666 -4.57334,4.85334 -13.346669,5.78667 L 115.55485,251.0918 Z M 79.434844,218.70513 h 13.066667 q 15.866669,0 15.866669,-13.72 0,-14 -15.866669,-14 H 79.434844 Z"
         style="font-style:normal;font-variant:normal;font-weight:300;font-stretch:normal;font-size:93.33333588px;line-height:0;font-family:Poppins;-inkscape-font-specification:'Poppins, Light';font-variant-ligatures:normal;font-variant-caps:normal;font-variant-numeric:normal;font-feature-settings:normal;text-align:start;writing-mode:lr-tb;text-anchor:start"
         id="path4518" />
      <path
         d="m 155.72172,184.54513 q 9.14667,0 16.42667,4.29333 7.28,4.29334 11.38666,11.94667 4.2,7.65333 4.2,17.36 0,9.70667 -4.2,17.45334 -4.10666,7.65333 -11.38666,11.94666 -7.28,4.29334 -16.42667,4.29334 -9.14667,0 -16.42667,-4.29334 -7.28,-4.29333 -11.48,-11.94666 -4.10666,-7.74667 -4.10666,-17.45334 0,-9.70667 4.10666,-17.36 4.2,-7.65333 11.48,-11.94667 7.28,-4.29333 16.42667,-4.29333 z m 0,6.06667 q -7.18667,0 -12.97333,3.36 -5.69334,3.36 -9.05334,9.61333 -3.26666,6.25333 -3.26666,14.56 0,8.30667 3.26666,14.56 3.36,6.25334 9.05334,9.61334 5.78666,3.36 12.97333,3.36 7.18667,0 12.88,-3.36 5.78667,-3.36 9.05333,-9.61334 3.36,-6.25333 3.36,-14.56 0,-8.30667 -3.36,-14.56 -3.26666,-6.25333 -9.05333,-9.61333 -5.69333,-3.36 -12.88,-3.36 z"
         style="font-style:normal;font-variant:normal;font-weight:300;font-stretch:normal;font-size:93.33333588px;line-height:0;font-family:Poppins;-inkscape-font-specification:'Poppins, Light';font-variant-ligatures:normal;font-variant-caps:normal;font-variant-numeric:normal;font-feature-settings:normal;text-align:start;writing-mode:lr-tb;text-anchor:start"
         id="path4520" />
      <path
         d="m 228.61651,184.63846 q 11.85334,0 19.6,5.78667 7.74667,5.69333 10.92,15.77333 h -6.90666 q -2.61334,-7.09333 -8.68,-11.29333 -6.06667,-4.2 -15.02667,-4.2 -6.81334,0 -12.41334,3.36 -5.50666,3.36 -8.68,9.61333 -3.17333,6.25334 -3.17333,14.56 0,8.30667 3.17333,14.56 3.17334,6.16001 8.68,9.52001 5.6,3.36 12.41334,3.36 8.96,0 15.02667,-4.2 6.06666,-4.2 8.68,-11.29334 h 6.90666 q -3.17333,10.08 -10.92,15.86667 -7.74666,5.69333 -19.6,5.69333 -9.05333,0 -16.14667,-4.29333 -7.09333,-4.29333 -11.01333,-11.85333 -3.92,-7.65334 -3.92,-17.36001 0,-9.8 3.92,-17.45333 3.92,-7.65333 11.01333,-11.85333 7.09334,-4.29334 16.14667,-4.29334 z"
         style="font-style:normal;font-variant:normal;font-weight:300;font-stretch:normal;font-size:93.33333588px;line-height:0;font-family:Poppins;-inkscape-font-specification:'Poppins, Light';font-variant-ligatures:normal;font-variant-caps:normal;font-variant-numeric:normal;font-feature-settings:normal;text-align:start;writing-mode:lr-tb;text-anchor:start"
         id="path4522" />
      <path
         d="m 283.55485,218.0518 31.08001,33.04 h -8.12 l -28.74667,-30.89334 v 30.89334 h -6.62667 v -65.8 h 6.62667 v 30.89333 l 28.74667,-30.89333 h 8.12 z"
         style="font-style:normal;font-variant:normal;font-weight:300;font-stretch:normal;font-size:93.33333588px;line-height:0;font-family:Poppins;-inkscape-font-specification:'Poppins, Light';font-variant-ligatures:normal;font-variant-caps:normal;font-variant-numeric:normal;font-feature-settings:normal;text-align:start;writing-mode:lr-tb;text-anchor:start"
         id="path4524" />
      <path
         d="m 329.90359,190.6118 v 24.82666 h 25.66667 v 5.13334 h -25.66667 v 25.10667 h 28.46667 v 5.41333 h -35.09333 v -65.8 h 35.09333 v 5.32 z"
         style="font-style:normal;font-variant:normal;font-weight:300;font-stretch:normal;font-size:93.33333588px;line-height:0;font-family:Poppins;-inkscape-font-specification:'Poppins, Light';font-variant-ligatures:normal;font-variant-caps:normal;font-variant-numeric:normal;font-feature-settings:normal;text-align:start;writing-mode:lr-tb;text-anchor:start"
         id="path4526" />
      <path
         d="m 408.30797,185.2918 v 5.32 h -18.76 v 60.48 h -6.53333 v -60.48 h -18.66667 v -5.32 z"
         style="font-style:normal;font-variant:normal;font-weight:300;font-stretch:normal;font-size:93.33333588px;line-height:0;font-family:Poppins;-inkscape-font-specification:'Poppins, Light';font-variant-ligatures:normal;font-variant-caps:normal;font-variant-numeric:normal;font-feature-settings:normal;text-align:start;writing-mode:lr-tb;text-anchor:start"
         id="path4528" />
      <path
         d="m 458.59715,185.10513 v 12.69333 h -27.06667 v 14.46667 h 20.90667 v 12.13333 h -20.90667 v 26.69334 h -15.96 v -65.98667 z"
         style="font-style:normal;font-variant:normal;font-weight:bold;font-stretch:normal;font-size:93.33333588px;line-height:1;font-family:Poppins;-inkscape-font-specification:'Poppins, Light';font-variant-ligatures:normal;font-variant-caps:normal;font-variant-numeric:normal;font-feature-settings:normal;text-align:start;writing-mode:lr-tb;text-anchor:start"
         id="path4530" />
      <path
         d="m 482.28778,185.10513 v 38.08 q 0,6.53333 2.89333,9.98667 2.98667,3.45333 8.58667,3.45333 5.6,0 8.49334,-3.45333 2.98666,-3.45334 2.98666,-9.98667 v -38.08 h 15.96 v 38.08 q 0,9.33333 -3.64,15.77334 -3.64,6.34666 -9.98666,9.61333 -6.25334,3.17333 -14.18667,3.17333 -7.93334,0 -14,-3.17333 -6.06667,-3.17333 -9.52,-9.61333 -3.45334,-6.44001 -3.45334,-15.77334 v -38.08 z"
         style="font-style:normal;font-variant:normal;font-weight:bold;font-stretch:normal;font-size:93.33333588px;line-height:1;font-family:Poppins;-inkscape-font-specification:'Poppins, Light';font-variant-ligatures:normal;font-variant-caps:normal;font-variant-numeric:normal;font-feature-settings:normal;text-align:start;writing-mode:lr-tb;text-anchor:start"
         id="path4532" />
      <path
         d="m 547.83257,197.79846 v 13.81334 h 22.30667 v 12.04 h -22.30667 v 14.65333 h 25.10667 v 12.78667 h -41.06667 v -65.98667 h 41.06667 v 12.69333 z"
         style="font-style:normal;font-variant:normal;font-weight:bold;font-stretch:normal;font-size:93.33333588px;line-height:1;font-family:Poppins;-inkscape-font-specification:'Poppins, Light';font-variant-ligatures:normal;font-variant-caps:normal;font-variant-numeric:normal;font-feature-settings:normal;text-align:start;writing-mode:lr-tb;text-anchor:start"
         id="path4534" />
      <path
         d="m 597.96276,238.86513 h 21.28 v 12.22667 h -37.24 v -65.98667 h 15.96 z"
         style="font-style:normal;font-variant:normal;font-weight:bold;font-stretch:normal;font-size:93.33333588px;line-height:1;font-family:Poppins;-inkscape-font-specification:'Poppins, Light';font-variant-ligatures:normal;font-variant-caps:normal;font-variant-numeric:normal;font-feature-settings:normal;text-align:start;writing-mode:lr-tb;text-anchor:start"
         id="path4536" />
    </g>
  </g>
</svg>
