<?xml version="1.0" encoding="UTF-8" standalone="no"?>
<!-- Created with Inkscape (http://www.inkscape.org/) -->
<svg
   xmlns:svg="http://www.w3.org/2000/svg"
   xmlns="http://www.w3.org/2000/svg"
   version="1.0"
   width="1133.8583"
   height="739.48816"
   id="svg2429">
  <defs
     id="defs2431" />
  <g
     transform="translate(3020.4204,-1581.6797)"
     id="layer1">
    <path
       d="M -1921.9952,1951.4237 C -1921.9952,2136.0145 -2159.9478,2285.6652 -2453.4846,2285.6652 C -2540.0219,2285.6652 -2621.7033,2272.6432 -2693.8917,2249.571 L -2758.3386,2225.2185 C -2895.3786,2164.7916 -2984.9873,2064.695 -2984.9873,1951.4237 C -2984.9873,1766.8263 -2747.0347,1617.1823 -2453.4846,1617.1823 C -2159.9478,1617.1823 -1921.9952,1766.833 -1921.9952,1951.4237 L -1921.9952,1951.4237 z"
       id="path2427"
       style="fill:#ffffff;overflow:visible" />
    <path
       d="M -1921.9952,1951.4237 C -1921.9952,2136.0144 -2159.9478,2285.6652 -2453.4846,2285.6652 C -2540.0219,2285.6652 -2621.7032,2272.6432 -2693.8917,2249.571 L -2599.7787,1898.9043 L -2553.7139,1898.9043 L -2595.3407,2055.2618 L -2527.8887,2055.2618 L -2480.3513,1876.5685 L -2593.8614,1876.5685 L -2557.8268,1740.8221 C -2553.3292,1723.8397 -2534.9736,1698.2268 -2509.9643,1698.2135 C -2495.1445,1698.2002 -2476.7293,1705.6101 -2475.9067,1715.05 C -2494.8394,1715.05 -2510.4552,1733.0938 -2510.4552,1752.8557 C -2510.4552,1772.611 -2494.8394,1788.9367 -2475.9067,1788.9367 C -2463.7337,1788.9367 -2435.9516,1775.1849 -2437.5835,1744.59 C -2438.5587,1725.6905 -2449.6105,1688.4154 -2509.971,1687.0356 C -2580.0366,1685.4833 -2628.4166,1748.033 -2645.6909,1811.2592 C -2655.8869,1848.8925 -2681.2677,1938.6803 -2702.9335,2020.3749 L -2758.3386,2225.2185 C -2895.3786,2164.7916 -2984.9873,2064.695 -2984.9873,1951.4237 C -2984.9873,1766.8264 -2747.0346,1617.1823 -2453.4846,1617.1823 C -2159.9478,1617.1823 -1921.9952,1766.833 -1921.9952,1951.4237 L -1921.9952,1951.4237 z M -2851.9739,2055.2618 L -2829.9233,1972.791 C -2716.9108,1974.5025 -2695.0327,1947.1781 -2679.4102,1876.5685 C -2668.3916,1827.0807 -2695.6961,1788.9367 -2745.0512,1788.9367 L -2879.9418,1788.9367 L -2885.8658,1811.2659 L -2856.2527,1811.2659 L -2921.0843,2055.2618 L -2851.9739,2055.2618 L -2851.9739,2055.2618 z M -2787.1622,1811.2592 C -2751.7844,1809.8794 -2738.1388,1818.3043 -2751.7844,1876.5619 C -2769.5629,1951.6493 -2791.1026,1950.4419 -2824.0061,1950.4419 L -2787.1622,1811.2592 L -2787.1622,1811.2592 z M -1951.9599,1908.1783 C -1951.9599,1887.9056 -1967.0981,1871.4141 -1985.6859,1871.4141 C -2000.645,1871.4141 -2021.8663,1881.2055 -2037.0045,1905.611 L -2029.6145,1876.5685 L -2121.7241,1876.5685 L -2127.6614,1898.9043 L -2102.9904,1898.9043 L -2144.5841,2055.2618 L -2077.1387,2055.2618 C -2077.1387,2055.2618 -2051.8243,1960.9431 -2051.9703,1960.7574 C -2041.94,1931.5689 -2023.3589,1897.5378 -2017.9259,1902.1681 C -2023.684,1929.8441 -2003.6169,1944.9558 -1985.6925,1944.9558 C -1967.1047,1944.9558 -1951.9599,1928.4577 -1951.9599,1908.1783 L -1951.9599,1908.1783 z M -2264.0247,1972.791 L -2150.362,1972.791 C -2149.4532,1969.8257 -2149.0287,1967.829 -2148.551,1965.0561 C -2136.053,1905.7636 -2165.4804,1867.9712 -2212.3743,1867.9712 C -2263.0429,1867.9712 -2309.917,1885.1459 -2329.4998,1965.0561 C -2342.502,2017.9735 -2314.1825,2060.4295 -2264.0247,2062.1543 C -2218.9616,2063.6933 -2176.3332,2051.1422 -2155.1185,1989.9724 L -2224.2156,1989.9724 L -2228.3418,2005.4291 C -2236.561,2036.3689 -2247.573,2039.8052 -2259.746,2039.8052 C -2271.9122,2039.8052 -2277.8494,2024.3353 -2272.7481,2005.4291 L -2264.0247,1972.791 L -2264.0247,1972.791 z M -2251.3543,1924.6764 C -2246.2662,1905.7636 -2234.9026,1889.4446 -2219.9434,1890.3003 C -2205.3094,1890.3003 -2201.8399,1905.7703 -2206.9413,1924.6764 L -2213.3561,1948.737 L -2257.7625,1948.737 L -2251.3543,1924.6764 L -2251.3543,1924.6764 z M -2354.1707,2032.926 L -2411.7583,2032.926 L -2312.5572,1876.5685 L -2457.3189,1876.5685 L -2463.2428,1898.9043 L -2405.6752,1898.9043 L -2503.2112,2055.2618 L -2360.1079,2055.2618 L -2354.1707,2032.926 L -2354.1707,2032.926 z"
       id="path5"
       style="fill:#0168ab;overflow:visible" />
  </g>
</svg>
