<svg width="513px" height="141px" viewBox="0 0 513 141" version="1.1" xmlns="http://www.w3.org/2000/svg" xmlns:xlink="http://www.w3.org/1999/xlink">
  <!-- Generator: Sketch 43.2 (39069) - http://www.bohemiancoding.com/sketch -->
  <desc>Created with Sketch.</desc>
  <defs></defs>
  <g id="Symbols" stroke="none" stroke-width="1" fill="none" fill-rule="evenodd">
    <g id="Post-quantum_logo_dark_BG" transform="translate(-42.000000, -26.000000)">
      <g id="PQ-Full-Logo-Dark" transform="translate(42.000000, 26.000000)">
        <path d="M204.136,106.016 L214.504,106.016 C216.328009,106.016 217.991992,106.199998 219.496,106.568 C221.000008,106.936002 222.279995,107.503996 223.336,108.272 C224.392005,109.040004 225.207997,110.015994 225.784,111.2 C226.360003,112.384006 226.648,113.807992 226.648,115.472 C226.648,117.168008 226.336003,118.623994 225.712,119.84 C225.087997,121.056006 224.224006,122.047996 223.12,122.816 C222.015994,123.584004 220.704008,124.151998 219.184,124.52 C217.663992,124.888002 216.024009,125.072 214.264,125.072 L208.888,125.072 L208.888,140 L204.136,140 L204.136,106.016 Z M208.888,121.04 L213.928,121.04 C215.080006,121.04 216.143995,120.936001 217.12,120.728 C218.096005,120.519999 218.935996,120.200002 219.64,119.768 C220.344004,119.335998 220.887998,118.768004 221.272,118.064 C221.656002,117.359996 221.848,116.496005 221.848,115.472 C221.848,114.447995 221.648002,113.592003 221.248,112.904 C220.847998,112.215997 220.304003,111.656002 219.616,111.224 C218.927997,110.791998 218.104005,110.488001 217.144,110.312 C216.183995,110.135999 215.144006,110.048 214.024,110.048 L208.888,110.048 L208.888,121.04 Z M252.376,128.576 C252.376,130.336009 252.064003,131.951993 251.44,133.424 C250.815997,134.896007 249.952006,136.167995 248.848,137.24 C247.743994,138.312005 246.440008,139.143997 244.936,139.736 C243.431992,140.328003 241.816009,140.624 240.088,140.624 C238.359991,140.624 236.744008,140.328003 235.24,139.736 C233.735992,139.143997 232.440005,138.312005 231.352,137.24 C230.263995,136.167995 229.408003,134.896007 228.784,133.424 C228.159997,131.951993 227.848,130.336009 227.848,128.576 C227.848,126.815991 228.159997,125.208007 228.784,123.752 C229.408003,122.295993 230.263995,121.040005 231.352,119.984 C232.440005,118.927995 233.735992,118.104003 235.24,117.512 C236.744008,116.919997 238.359991,116.624 240.088,116.624 C241.816009,116.624 243.431992,116.919997 244.936,117.512 C246.440008,118.104003 247.743994,118.927995 248.848,119.984 C249.952006,121.040005 250.815997,122.295993 251.44,123.752 C252.064003,125.208007 252.376,126.815991 252.376,128.576 Z M247.672,128.576 C247.672,127.487995 247.504002,126.448005 247.168,125.456 C246.831998,124.463995 246.344003,123.592004 245.704,122.84 C245.063997,122.087996 244.272005,121.488002 243.328,121.04 C242.383995,120.591998 241.304006,120.368 240.088,120.368 C238.871994,120.368 237.792005,120.591998 236.848,121.04 C235.903995,121.488002 235.112003,122.087996 234.472,122.84 C233.831997,123.592004 233.344002,124.463995 233.008,125.456 C232.671998,126.448005 232.504,127.487995 232.504,128.576 C232.504,129.664005 232.671998,130.703995 233.008,131.696 C233.344002,132.688005 233.831997,133.567996 234.472,134.336 C235.112003,135.104004 235.903995,135.711998 236.848,136.16 C237.792005,136.608002 238.871994,136.832 240.088,136.832 C241.304006,136.832 242.383995,136.608002 243.328,136.16 C244.272005,135.711998 245.063997,135.104004 245.704,134.336 C246.344003,133.567996 246.831998,132.688005 247.168,131.696 C247.504002,130.703995 247.672,129.664005 247.672,128.576 Z M270.904,123.008 C270.391997,122.175996 269.672005,121.496003 268.744,120.968 C267.815995,120.439997 266.776006,120.176 265.624,120.176 C265.111997,120.176 264.600003,120.231999 264.088,120.344 C263.575997,120.456001 263.120002,120.631999 262.72,120.872 C262.319998,121.112001 262.000001,121.415998 261.76,121.784 C261.519999,122.152002 261.4,122.607997 261.4,123.152 C261.4,124.112005 261.831996,124.823998 262.696,125.288 C263.560004,125.752002 264.855991,126.175998 266.584,126.56 C267.672005,126.816001 268.679995,127.119998 269.608,127.472 C270.536005,127.824002 271.343997,128.263997 272.032,128.792 C272.720003,129.320003 273.255998,129.951996 273.64,130.688 C274.024002,131.424004 274.216,132.287995 274.216,133.28 C274.216,134.624007 273.960003,135.759995 273.448,136.688 C272.935997,137.616005 272.256004,138.375997 271.408,138.968 C270.559996,139.560003 269.592005,139.983999 268.504,140.24 C267.415995,140.496001 266.296006,140.624 265.144,140.624 C263.415991,140.624 261.728008,140.288003 260.08,139.616 C258.431992,138.943997 257.064005,137.920007 255.976,136.544 L259.192,133.808 C259.800003,134.704004 260.639995,135.455997 261.712,136.064 C262.784005,136.672003 263.959994,136.976 265.24,136.976 C265.816003,136.976 266.367997,136.920001 266.896,136.808 C267.424003,136.695999 267.903998,136.512001 268.336,136.256 C268.768002,135.999999 269.111999,135.664002 269.368,135.248 C269.624001,134.831998 269.752,134.304003 269.752,133.664 C269.752,132.607995 269.248005,131.824003 268.24,131.312 C267.231995,130.799997 265.75201,130.320002 263.8,129.872 C263.031996,129.679999 262.256004,129.448001 261.472,129.176 C260.687996,128.903999 259.976003,128.528002 259.336,128.048 C258.695997,127.567998 258.176002,126.968004 257.776,126.248 C257.375998,125.527996 257.176,124.640005 257.176,123.584 C257.176,122.367994 257.423998,121.320004 257.92,120.44 C258.416002,119.559996 259.063996,118.840003 259.864,118.28 C260.664004,117.719997 261.575995,117.304001 262.6,117.032 C263.624005,116.759999 264.679995,116.624 265.768,116.624 C267.400008,116.624 268.975992,116.943997 270.496,117.584 C272.016008,118.224003 273.191996,119.151994 274.024,120.368 L270.904,123.008 Z M291.064,120.944 L285.016,120.944 L285.016,132.8 C285.016,134.176007 285.271997,135.159997 285.784,135.752 C286.296003,136.344003 287.111994,136.64 288.232,136.64 C288.648002,136.64 289.095998,136.592 289.576,136.496 C290.056002,136.4 290.487998,136.256001 290.872,136.064 L291.016,139.76 C290.471997,139.952001 289.872003,140.103999 289.216,140.216 C288.559997,140.328001 287.880004,140.384 287.176,140.384 C285.031989,140.384 283.392006,139.792006 282.256,138.608 C281.119994,137.423994 280.552,135.648012 280.552,133.28 L280.552,120.944 L276.184,120.944 L276.184,117.248 L280.552,117.248 L280.552,110.72 L285.016,110.72 L285.016,117.248 L291.064,117.248 L291.064,120.944 Z M305.08,130.208 L293.944,130.208 L293.944,126.368 L305.08,126.368 L305.08,130.208 Z M347.224,140 L327.256,140 C324.663987,140 322.288011,139.584004 320.128,138.752 C317.967989,137.919996 316.104008,136.752008 314.536,135.248 C312.967992,133.743992 311.752004,131.920011 310.888,129.776 C310.023996,127.631989 309.592,125.232013 309.592,122.576 C309.592,120.015987 310.039996,117.672011 310.936,115.544 C311.832004,113.415989 313.063992,111.584008 314.632,110.048 C316.200008,108.511992 318.063989,107.312004 320.224,106.448 C322.384011,105.583996 324.743987,105.152 327.304,105.152 C329.832013,105.152 332.167989,105.583996 334.312,106.448 C336.456011,107.312004 338.311992,108.511992 339.88,110.048 C341.448008,111.584008 342.671996,113.415989 343.552,115.544 C344.432004,117.672011 344.872,120.015987 344.872,122.576 C344.872,125.616015 344.232006,128.271989 342.952,130.544 C341.671994,132.816011 339.976011,134.607993 337.864,135.92 L337.864,136.016 L347.224,136.016 L347.224,140 Z M314.728,122.576 C314.728,124.432009 315.023997,126.167992 315.616,127.784 C316.208003,129.400008 317.047995,130.799994 318.136,131.984 C319.224005,133.168006 320.535992,134.103997 322.072,134.792 C323.608008,135.480003 325.33599,135.824 327.256,135.824 C329.112009,135.824 330.815992,135.480003 332.368,134.792 C333.920008,134.103997 335.239995,133.168006 336.328,131.984 C337.416005,130.799994 338.263997,129.400008 338.872,127.784 C339.480003,126.167992 339.784,124.432009 339.784,122.576 C339.784,120.751991 339.496003,119.040008 338.92,117.44 C338.343997,115.839992 337.512005,114.440006 336.424,113.24 C335.335995,112.039994 334.024008,111.088004 332.488,110.384 C330.951992,109.679996 329.22401,109.328 327.304,109.328 C325.38399,109.328 323.656008,109.679996 322.12,110.384 C320.583992,111.088004 319.264006,112.039994 318.16,113.24 C317.055994,114.440006 316.208003,115.839992 315.616,117.44 C315.023997,119.040008 314.728,120.751991 314.728,122.576 Z M367.72,140 C367.656,139.423997 367.608,138.776004 367.576,138.056 C367.544,137.335996 367.528,136.736002 367.528,136.256 L367.432,136.256 C366.855997,137.472006 365.888007,138.503996 364.528,139.352 C363.167993,140.200004 361.656008,140.624 359.992,140.624 C358.519993,140.624 357.248005,140.384002 356.176,139.904 C355.103995,139.423998 354.224003,138.760004 353.536,137.912 C352.847997,137.063996 352.336002,136.080006 352,134.96 C351.663998,133.839994 351.496,132.640006 351.496,131.36 L351.496,117.248 L356.008,117.248 L356.008,129.824 C356.008,130.752005 356.079999,131.639996 356.224,132.488 C356.368001,133.336004 356.631998,134.079997 357.016,134.72 C357.400002,135.360003 357.927997,135.871998 358.6,136.256 C359.272003,136.640002 360.135995,136.832 361.192,136.832 C363.016009,136.832 364.487994,136.152007 365.608,134.792 C366.728006,133.431993 367.288,131.616011 367.288,129.344 L367.288,117.248 L371.8,117.248 L371.8,135.104 C371.8,135.712003 371.816,136.495995 371.848,137.456 C371.88,138.416005 371.928,139.263996 371.992,140 L367.72,140 Z M393.784,125.264 C393.784,123.567992 393.272005,122.312004 392.248,121.496 C391.223995,120.679996 389.864008,120.272 388.168,120.272 C386.887994,120.272 385.680006,120.519998 384.544,121.016 C383.407994,121.512002 382.456004,122.143996 381.688,122.912 L379.288,120.032 C380.408006,118.975995 381.775992,118.144003 383.392,117.536 C385.008008,116.927997 386.743991,116.624 388.6,116.624 C390.232008,116.624 391.647994,116.855998 392.848,117.32 C394.048006,117.784002 395.031996,118.415996 395.8,119.216 C396.568004,120.016004 397.143998,120.959995 397.528,122.048 C397.912002,123.136005 398.104,124.303994 398.104,125.552 L398.104,135.488 C398.104,136.256004 398.128,137.063996 398.176,137.912 C398.224,138.760004 398.311999,139.455997 398.44,140 L394.36,140 C394.103999,138.911995 393.976,137.824005 393.976,136.736 L393.832,136.736 C392.999996,137.952006 391.952006,138.895997 390.688,139.568 C389.423994,140.240003 387.928009,140.576 386.2,140.576 C385.303996,140.576 384.368005,140.456001 383.392,140.216 C382.415995,139.975999 381.528004,139.584003 380.728,139.04 C379.927996,138.495997 379.264003,137.776004 378.736,136.88 C378.207997,135.983996 377.944,134.880007 377.944,133.568 C377.944,131.839991 378.407995,130.472005 379.336,129.464 C380.264005,128.455995 381.479992,127.688003 382.984,127.16 C384.488008,126.631997 386.183991,126.288001 388.072,126.128 C389.960009,125.967999 391.86399,125.888 393.784,125.888 L393.784,125.264 Z M392.68,129.152 C391.559994,129.152 390.400006,129.2 389.2,129.296 C387.999994,129.392 386.912005,129.583999 385.936,129.872 C384.959995,130.160001 384.152003,130.591997 383.512,131.168 C382.871997,131.744003 382.552,132.511995 382.552,133.472 C382.552,134.144003 382.687999,134.703998 382.96,135.152 C383.232001,135.600002 383.591998,135.967999 384.04,136.256 C384.488002,136.544001 384.983997,136.743999 385.528,136.856 C386.072003,136.968001 386.631997,137.024 387.208,137.024 C389.320011,137.024 390.943994,136.392006 392.08,135.128 C393.216006,133.863994 393.784,132.27201 393.784,130.352 L393.784,129.152 L392.68,129.152 Z M409.72,117.248 C409.784,117.824003 409.832,118.471996 409.864,119.192 C409.896,119.912004 409.912,120.511998 409.912,120.992 L410.056,120.992 C410.344001,120.383997 410.735998,119.816003 411.232,119.288 C411.728002,118.759997 412.295997,118.296002 412.936,117.896 C413.576003,117.495998 414.279996,117.184001 415.048,116.96 C415.816004,116.735999 416.615996,116.624 417.448,116.624 C418.920007,116.624 420.183995,116.871998 421.24,117.368 C422.296005,117.864002 423.175996,118.527996 423.88,119.36 C424.584004,120.192004 425.103998,121.167994 425.44,122.288 C425.776002,123.408006 425.944,124.607994 425.944,125.888 L425.944,140 L421.432,140 L421.432,127.376 C421.432,126.447995 421.360001,125.568004 421.216,124.736 C421.071999,123.903996 420.808002,123.168003 420.424,122.528 C420.039998,121.887997 419.512003,121.376002 418.84,120.992 C418.167997,120.607998 417.304005,120.416 416.248,120.416 C414.455991,120.416 412.992006,121.095993 411.856,122.456 C410.719994,123.816007 410.152,125.631989 410.152,127.904 L410.152,140 L405.64,140 L405.64,122.144 C405.64,121.535997 405.624,120.752005 405.592,119.792 C405.56,118.831995 405.512,117.984004 405.448,117.248 L409.72,117.248 Z M444.712,120.944 L438.664,120.944 L438.664,132.8 C438.664,134.176007 438.919997,135.159997 439.432,135.752 C439.944003,136.344003 440.759994,136.64 441.88,136.64 C442.296002,136.64 442.743998,136.592 443.224,136.496 C443.704002,136.4 444.135998,136.256001 444.52,136.064 L444.664,139.76 C444.119997,139.952001 443.520003,140.103999 442.864,140.216 C442.207997,140.328001 441.528004,140.384 440.824,140.384 C438.679989,140.384 437.040006,139.792006 435.904,138.608 C434.767994,137.423994 434.2,135.648012 434.2,133.28 L434.2,120.944 L429.832,120.944 L429.832,117.248 L434.2,117.248 L434.2,110.72 L438.664,110.72 L438.664,117.248 L444.712,117.248 L444.712,120.944 Z M465.4,140 C465.336,139.423997 465.288,138.776004 465.256,138.056 C465.224,137.335996 465.208,136.736002 465.208,136.256 L465.112,136.256 C464.535997,137.472006 463.568007,138.503996 462.208,139.352 C460.847993,140.200004 459.336008,140.624 457.672,140.624 C456.199993,140.624 454.928005,140.384002 453.856,139.904 C452.783995,139.423998 451.904003,138.760004 451.216,137.912 C450.527997,137.063996 450.016002,136.080006 449.68,134.96 C449.343998,133.839994 449.176,132.640006 449.176,131.36 L449.176,117.248 L453.688,117.248 L453.688,129.824 C453.688,130.752005 453.759999,131.639996 453.904,132.488 C454.048001,133.336004 454.311998,134.079997 454.696,134.72 C455.080002,135.360003 455.607997,135.871998 456.28,136.256 C456.952003,136.640002 457.815995,136.832 458.872,136.832 C460.696009,136.832 462.167994,136.152007 463.288,134.792 C464.408006,133.431993 464.968,131.616011 464.968,129.344 L464.968,117.248 L469.48,117.248 L469.48,135.104 C469.48,135.712003 469.496,136.495995 469.528,137.456 C469.56,138.416005 469.608,139.263996 469.672,140 L465.4,140 Z M481.72,120.992 C482.296003,119.775994 483.215994,118.744004 484.48,117.896 C485.744006,117.047996 487.239991,116.624 488.968,116.624 C490.504008,116.624 491.887994,116.975996 493.12,117.68 C494.352006,118.384004 495.319996,119.551992 496.024,121.184 C496.792004,119.711993 497.863993,118.584004 499.24,117.8 C500.616007,117.015996 502.119992,116.624 503.752,116.624 C505.224007,116.624 506.487995,116.871998 507.544,117.368 C508.600005,117.864002 509.479996,118.527996 510.184,119.36 C510.888004,120.192004 511.407998,121.167994 511.744,122.288 C512.080002,123.408006 512.248,124.607994 512.248,125.888 L512.248,140 L507.736,140 L507.736,127.376 C507.736,126.447995 507.656001,125.568004 507.496,124.736 C507.335999,123.903996 507.064002,123.168003 506.68,122.528 C506.295998,121.887997 505.784003,121.376002 505.144,120.992 C504.503997,120.607998 503.688005,120.416 502.696,120.416 C501.671995,120.416 500.792004,120.631998 500.056,121.064 C499.319996,121.496002 498.720002,122.055997 498.256,122.744 C497.791998,123.432003 497.456001,124.207996 497.248,125.072 C497.039999,125.936004 496.936,126.815996 496.936,127.712 L496.936,140 L492.424,140 L492.424,126.464 C492.424,125.567996 492.344001,124.752004 492.184,124.016 C492.023999,123.279996 491.752002,122.648003 491.368,122.12 C490.983998,121.591997 490.488003,121.176002 489.88,120.872 C489.271997,120.567998 488.520004,120.416 487.624,120.416 C485.959992,120.416 484.576006,121.095993 483.472,122.456 C482.367994,123.816007 481.816,125.631989 481.816,127.904 L481.816,140 L477.304,140 L477.304,122.144 C477.304,121.535997 477.288,120.752005 477.256,119.792 C477.224,118.831995 477.176,117.984004 477.112,117.248 L481.384,117.248 C481.448,117.824003 481.496,118.471996 481.528,119.192 C481.56,119.912004 481.576,120.511998 481.576,120.992 L481.72,120.992 Z" id="Post-Quantum" fill="#52C2EB"></path>
        <g id="PQ-Large-Dark">
          <path d="M37.4213,86.0371 C25.3353,80.1301 17.0083,67.7201 17.0083,53.3611 C17.0083,33.2841 33.2833,17.0081 53.3613,17.0081 C66.2043,17.0081 77.4843,23.6741 83.9503,33.7301 C86.1953,33.4431 88.4773,33.2781 90.7993,33.2781 C95.1393,33.2781 99.3543,33.8091 103.3943,34.7861 C95.8503,14.4751 76.2983,0.0001 53.3613,0.0001 C24.4353,0.0001 0.9023,23.0201 0.0413,51.7371 C0.0243,52.3741 0.0003,52.8641 0.0003,53.3611 C0.0003,53.8321 0.0233,54.2981 0.0353,54.7661 L0.0003,107.7891 C0.0003,112.1741 3.1623,116.7611 7.9713,116.7611 L9.0363,116.7611 C13.8503,116.7611 17.0083,112.1741 17.0083,107.7891 L17.0083,92.4071 C23.5813,98.5301 31.7003,103.0161 40.7163,105.2101 C38.5773,99.4351 37.4053,93.1911 37.4053,86.6721 C37.4053,86.4591 37.4193,86.2501 37.4213,86.0371 Z" id="Fill-3" fill="#C9D400"></path>
          <path d="M126.1192,85.6389 C126.1192,105.7169 109.8432,121.9919 89.7662,121.9919 C69.6892,121.9919 53.4132,105.7169 53.4132,85.6389 C53.4132,65.5619 69.6892,49.2859 89.7662,49.2859 C109.8432,49.2859 126.1192,65.5619 126.1192,85.6389 M36.4052,85.6389 C36.4052,114.5649 59.4252,138.0979 88.1422,138.9589 L88.1512,138.9629 L88.2862,138.9629 C88.7792,138.9759 89.2692,138.9999 89.7662,138.9999 C90.2382,138.9999 90.7032,138.9769 91.1712,138.9649 L141.1952,138.9999 C145.5792,138.9999 150.1662,136.1699 150.1662,131.0279 L150.1662,129.9639 C150.1662,125.0029 145.5792,121.9919 141.1952,121.9919 L128.8122,121.9919 C137.6892,112.4629 143.1272,99.6889 143.1272,85.6389 C143.1272,56.1689 119.2372,32.2779 89.7662,32.2779 C60.2962,32.2779 36.4052,56.1689 36.4052,85.6389" id="Fill-1" fill="#52C2EB"></path>
        </g>
      </g>
    </g>
  </g>
</svg>
